<svg xmlns="http://www.w3.org/2000/svg" xmlns:xlink="http://www.w3.org/1999/xlink" viewBox="0 0 468.32 468.32" width="50px" height="50px"><defs><style>.cls-1{fill:url(#Безымянный_градиент_21);}.cls-2{fill:url(#Безымянный_градиент_21-2);}.cls-3{fill:url(#Безымянный_градиент_21-3);}</style><linearGradient id="Безымянный_градиент_21" x1="475.44" y1="983.98" x2="1191.32" y2="203.3" gradientUnits="userSpaceOnUse"><stop offset="0" stop-color="#ff8438"/><stop offset="1" stop-color="#ffdc00"/></linearGradient><linearGradient id="Безымянный_градиент_21-2" x1="-180.99" y1="789.96" x2="505.07" y2="41.8" xlink:href="#Безымянный_градиент_21"/><linearGradient id="Безымянный_градиент_21-3" x1="-302.99" y1="714.36" x2="412.89" y2="-66.32" xlink:href="#Безымянный_градиент_21"/></defs><path class="cls-1" d="M960,221.4c-129.32,0-234.16,104.83-234.16,234.16S830.68,689.72,960,689.72s234.16-104.84,234.16-234.16S1089.32,221.4,960,221.4Zm0,431.87c-109.19,0-197.71-88.52-197.71-197.71S850.81,257.85,960,257.85s197.71,88.52,197.71,197.71S1069.19,653.27,960,653.27Z" transform="translate(-725.84 -221.4)"/><polygon class="cls-2" points="233.41 296.7 184.99 249.03 184.99 286.96 235.07 336.97 312.48 258.77 312.48 351.3 351.3 351.3 351.15 178.96 233.41 296.7"/><polygon class="cls-3" points="234.16 208.6 141.64 117.02 117.02 117.02 117.02 351.3 157.66 351.3 157.66 176.62 234.54 251.52 351.3 136.27 351.3 117.02 326.68 117.02 234.16 208.6"/></svg>