<svg id="Слой_1" data-name="Слой 1" xmlns="http://www.w3.org/2000/svg" viewBox="0 0 821.76 123.37" height=" 20px"><path d="M638.39,737.87h33.75V856H638.39V798.5L612,842.61h-3L582.68,798.5V856H549.12V737.87h33.74l27.77,48Z" transform="translate(-549.12 -735.23)"/><path d="M791.64,840.85c-11.95,11.78-26.89,17.75-44.29,17.75s-32.33-6-44.46-17.75c-11.95-12-18.1-26.71-18.1-43.93,0-17.4,6-32,18.1-43.76,12-11.95,26.89-17.93,44.46-17.93s32.52,6,44.29,17.93c12.13,11.77,18.28,26.36,18.28,43.76C809.92,814.14,803.77,828.9,791.64,840.85Zm-65-23.37c5.44,5.45,12.47,8.09,20.73,8.09s15.12-2.64,20.57-8.09a28,28,0,0,0,8.26-20.56,27.59,27.59,0,0,0-8.26-20.39,28,28,0,0,0-20.57-8.26,28.36,28.36,0,0,0-20.73,8.26c-5.45,5.45-8.09,12.13-8.09,20.39A28.36,28.36,0,0,0,726.62,817.48Z" transform="translate(-549.12 -735.23)"/><path d="M886.54,791.82v-54h33.74V856H893.39l-37.08-54v54H822.57V737.87h26.89Z" transform="translate(-549.12 -735.23)"/><path d="M970.9,811.68v13.18h43.76V856H937.15V737.87H1014v30.75H970.9v12.83h38.83v30.41H970.9Z" transform="translate(-549.12 -735.23)"/><path d="M1085,786.2h60.11v14.06c0,17-5.45,30.93-16.35,41.82-10.72,11.08-25,16.52-42.7,16.52-18.46,0-33.57-5.79-45.17-17.57-11.77-11.95-17.57-26.54-17.57-43.93s5.8-32.17,17.57-43.94q17.4-17.92,43.76-17.93a62.26,62.26,0,0,1,30.05,7.39,58.86,58.86,0,0,1,22,20L1108,779c-4.74-7.2-12.3-10.72-22.67-10.72-8.43,0-15.29,2.64-20.56,8.09-5.09,5.27-7.73,12.3-7.73,20.91a33.16,33.16,0,0,0,7.2,21.27c4.93,6,12.48,9,22.5,9,11.77,0,19.51-4.22,23.37-12.48H1085Z" transform="translate(-549.12 -735.23)"/><path d="M1254.54,855.79h-36l-18.62-37.08h-8.44v37.08h-33.74V737.69H1205c12.83,0,23.55,3.87,32,11.43s12.65,17.57,12.65,30a35.74,35.74,0,0,1-4.92,18.8,36.87,36.87,0,0,1-13.36,13.71Zm-50.44-87h-12.82v22h12.82c3.52.17,6.33-.7,8.44-2.64s3.16-4.57,3.16-8.08-1-6.15-3.16-8.09C1210.61,769.68,1207.79,768.8,1204.1,768.8Z" transform="translate(-549.12 -735.23)"/><path d="M1370.88,856h-36.2l-4-15.12h-34.1l-4,15.12h-36.2l37.61-118.1h39.36Zm-57.29-78.56-9.84,36.2h19.51Z" transform="translate(-549.12 -735.23)"/></svg>